<svg width="20" height="20" viewBox="0 0 24 24" fill="none" xmlns="http://www.w3.org/2000/svg">
<path fill-rule="evenodd" clip-rule="evenodd" d="M11.6711 4.03518C11.3963 5.88864 11.051 8.77822 12.9191 12.0139C14.7873 15.2496 17.4624 16.3954 19.2049 17.0841C19.2651 17.1079 19.3252 17.1315 19.3849 17.155C19.7455 17.2967 20.0926 17.4332 20.362 17.567C20.5218 17.6465 20.6921 17.7429 20.8397 17.8634C20.9848 17.9819 21.1628 18.1681 21.2468 18.4406C21.4377 19.0598 21.014 19.53 20.7543 19.7662C20.4457 20.0468 19.9792 20.3508 19.3767 20.6987C14.235 23.6672 7.66043 21.9056 4.6919 16.7639C1.72337 11.6223 3.48503 5.04767 8.62667 2.07914C9.22917 1.73129 9.72572 1.47922 10.1231 1.35231C10.4574 1.24552 11.0765 1.11367 11.5173 1.58859C11.7113 1.79764 11.7836 2.04484 11.8136 2.22975C11.8442 2.41785 11.8425 2.61355 11.8314 2.79169C11.8126 3.09193 11.7573 3.46072 11.6997 3.84384C11.6902 3.90731 11.6806 3.97117 11.6711 4.03518ZM10.3182 2.88302C10.0914 2.98335 9.78522 3.1423 9.37667 3.37818C4.95247 5.93249 3.43662 11.5897 5.99094 16.0139C8.54525 20.4381 14.2025 21.954 18.6267 19.3996C19.0352 19.1638 19.326 18.9781 19.5263 18.8318C19.3447 18.7513 19.1209 18.6632 18.8443 18.5543C18.7833 18.5303 18.7198 18.5053 18.6536 18.4791C16.8344 17.7601 13.752 16.4564 11.6201 12.7639C9.48823 9.0714 9.90043 5.75014 10.1874 3.81517C10.1978 3.74475 10.2079 3.67722 10.2176 3.61243C10.2616 3.31836 10.2971 3.08048 10.3182 2.88302ZM10.7182 2.74809C10.7178 2.74864 10.711 2.74977 10.6992 2.74983C10.7128 2.74757 10.7187 2.74754 10.7182 2.74809ZM19.8321 18.5685C19.838 18.5583 19.8424 18.553 19.8431 18.5529C19.8438 18.5527 19.8409 18.5578 19.8321 18.5685Z" fill="#FAFAFA"/>
</svg>
